<?xml version="1.0" standalone="no"?>
<!DOCTYPE svg PUBLIC "-//W3C//DTD SVG 20010904//EN"
 "http://www.w3.org/TR/2001/REC-SVG-20010904/DTD/svg10.dtd">
<svg version="1.0" xmlns="http://www.w3.org/2000/svg"
 width="600.000000pt" height="600.000000pt" viewBox="0 0 600.000000 600.000000"
 preserveAspectRatio="xMidYMid meet">
<metadata>
Created by potrace 1.14, written by Peter Selinger 2001-2017
</metadata>
<g transform="translate(0.000000,600.000000) scale(0.100000,-0.100000)"
fill="#000000" stroke="none">
<path d="M2798 5995 c-1 -1 -41 -6 -87 -9 -47 -4 -87 -9 -90 -11 -3 -1 -37 -6
-76 -10 -38 -3 -72 -8 -75 -10 -6 -4 -32 -9 -95 -20 -70 -13 -229 -57 -350
-99 -932 -319 -1648 -1079 -1915 -2031 -32 -115 -32 -117 -49 -205 -6 -30 -13
-66 -16 -80 -3 -14 -7 -43 -10 -65 -3 -22 -8 -56 -10 -75 -27 -194 -27 -595 0
-770 37 -243 104 -518 154 -635 5 -11 19 -47 32 -80 12 -33 49 -116 82 -185
426 -897 1279 -1530 2257 -1675 168 -25 231 -30 440 -30 256 0 327 6 550 45
176 31 202 38 400 102 763 246 1415 820 1765 1552 34 72 66 142 70 156 4 14
11 30 15 35 13 17 109 320 125 391 31 148 45 219 51 269 3 33 8 62 9 65 18 31
27 549 12 675 -11 87 -19 147 -23 170 -2 11 -9 49 -15 85 -18 113 -96 401
-128 475 -5 11 -19 47 -32 80 -63 168 -194 414 -311 586 -238 350 -607 694
-968 903 -50 28 -283 145 -342 171 -225 97 -549 184 -788 210 -36 4 -74 9 -85
12 -22 5 -491 13 -497 8z"/>
</g>
</svg>
